<svg width="34" height="34" viewBox="0 0 34 34" fill="none" xmlns="http://www.w3.org/2000/svg">
<g id="Facebook Icon">
<path id="Vector" d="M17 0C13.6377 0 10.3509 0.997026 7.55531 2.86501C4.75968 4.73299 2.58075 7.38804 1.29406 10.4944C0.00736613 13.6007 -0.329291 17.0189 0.326658 20.3165C0.982606 23.6142 2.6017 26.6433 4.97919 29.0208C7.35668 31.3983 10.3858 33.0174 13.6835 33.6734C16.9811 34.3293 20.3993 33.9926 23.5056 32.706C26.612 31.4193 29.267 29.2403 31.135 26.4447C33.003 23.6491 34 20.3623 34 17C33.9952 12.4928 32.2026 8.17156 29.0155 4.98448C25.8284 1.79741 21.5072 0.00480385 17 0ZM17 31.8223C14.0682 31.8232 11.2021 30.9546 8.76396 29.3265C6.32586 27.6983 4.42535 25.3837 3.30279 22.6754C2.18023 19.967 1.88606 16.9866 2.45746 14.1111C3.02887 11.2356 4.4402 8.59406 6.51295 6.52068C8.5857 4.4473 11.2268 3.03516 14.1021 2.46288C16.9775 1.89059 19.958 2.18385 22.6667 3.30558C25.3753 4.42731 27.6905 6.32712 29.3194 8.76472C30.9483 11.2023 31.8177 14.0682 31.8177 17C31.8105 20.9273 30.2469 24.6916 27.4695 27.4681C24.6921 30.2447 20.9273 31.8072 17 31.8132V31.8223Z" fill="#EBF2FF" fill-opacity="0.5"/>
<path id="Vector_2" d="M21.9999 7.46368V10.787H20.0235C19.3017 10.787 18.815 10.9381 18.5632 11.2402C18.3114 11.5423 18.1856 11.9955 18.1856 12.5997V14.9789H21.874L21.383 18.7051H18.1856V28.2597H14.3335V18.7051H11.1234V14.9789H14.3335V12.2347C14.3335 10.6737 14.7699 9.46314 15.6427 8.60293C16.5155 7.74273 17.6778 7.31262 19.1297 7.31262C20.3634 7.31262 21.3201 7.36298 21.9999 7.46368Z" fill="#757C86"/>
</g>
</svg>
