<svg width="54" height="54" viewBox="0 0 54 54" fill="none" xmlns="http://www.w3.org/2000/svg">
<path id="Union" fill-rule="evenodd" clip-rule="evenodd" d="M1.38165 5C1.38165 2.65862 3.27971 0.760563 5.62109 0.760563L49.0016 0.760559C51.343 0.760559 53.241 2.65862 53.241 4.99999C53.241 5.2099 53.2258 5.41625 53.1963 5.61798C53.226 5.82045 53.2414 6.02757 53.2414 6.23828L53.2414 48.3794C53.2414 50.7207 51.3433 52.6188 49.0019 52.6188C46.6606 52.6188 44.7625 50.7207 44.7625 48.3794V15.2326L7.99773 51.9974C6.34213 53.653 3.65786 53.653 2.00226 51.9974C0.346658 50.3418 0.346658 47.6575 2.00226 46.0019L38.7648 9.23943L5.62109 9.23944C3.27971 9.23944 1.38165 7.34138 1.38165 5Z" fill="#EBF2FF" fill-opacity="0.5"/>
</svg>
