<svg width="34" height="34" viewBox="0 0 34 34" fill="none" xmlns="http://www.w3.org/2000/svg">
<g id="Group 19345">
<path id="Vector" d="M22.6659 12.2603C22.6659 12.4624 22.606 12.6599 22.4936 12.8279C22.3812 12.9959 22.2215 13.1267 22.0347 13.2038C21.8479 13.281 21.6424 13.3009 21.4443 13.2612C21.2462 13.2214 21.0643 13.1237 20.9217 12.9805C20.7791 12.8373 20.6822 12.655 20.6434 12.4567C20.6045 12.2583 20.6254 12.053 20.7033 11.8665C20.7813 11.6801 20.9128 11.5209 21.0813 11.4093C21.2498 11.2977 21.4476 11.2386 21.6497 11.2395C21.7835 11.2395 21.916 11.2659 22.0396 11.3173C22.1632 11.3686 22.2755 11.4439 22.3699 11.5388C22.4643 11.6336 22.5391 11.7462 22.5899 11.87C22.6407 11.9938 22.6665 12.1265 22.6659 12.2603ZM21.4001 16.8245C21.4001 17.6703 21.1494 18.4971 20.6797 19.2005C20.21 19.9038 19.5424 20.4522 18.7611 20.7763C17.9799 21.1004 17.1201 21.1856 16.2904 21.0213C15.4608 20.8569 14.6984 20.4504 14.0997 19.8529C13.501 19.2555 13.0928 18.494 12.9267 17.6647C12.7606 16.8354 12.8441 15.9754 13.1665 15.1935C13.4889 14.4116 14.0359 13.7428 14.7382 13.2716C15.4406 12.8004 16.2669 12.5479 17.1127 12.5461C17.6751 12.5455 18.2322 12.6557 18.752 12.8704C19.2719 13.0851 19.7444 13.4001 20.1425 13.7974C20.5406 14.1946 20.8566 14.6664 21.0724 15.1858C21.2882 15.7052 21.3995 16.2621 21.4001 16.8245ZM19.8621 16.8245C19.8621 16.2861 19.7024 15.7598 19.4033 15.3121C19.1042 14.8645 18.6791 14.5156 18.1817 14.3095C17.6842 14.1035 17.1369 14.0496 16.6089 14.1546C16.0808 14.2597 15.5958 14.5189 15.215 14.8996C14.8343 15.2803 14.5751 15.7654 14.4701 16.2934C14.365 16.8215 14.4189 17.3688 14.625 17.8662C14.831 18.3636 15.1799 18.7888 15.6276 19.0879C16.0752 19.387 16.6015 19.5467 17.1399 19.5467C17.8619 19.5467 18.5543 19.2599 19.0648 18.7494C19.5753 18.2389 19.8621 17.5465 19.8621 16.8245ZM25.7601 13.3855C25.7601 12.0017 25.2105 10.6746 24.232 9.69614C23.2535 8.71767 21.9264 8.16797 20.5426 8.16797H13.4423C12.0585 8.16797 10.7314 8.71767 9.75296 9.69614C8.77448 10.6746 8.22479 12.0017 8.22479 13.3855V20.5085C8.22479 21.8923 8.77448 23.2194 9.75296 24.1978C10.7314 25.1763 12.0585 25.726 13.4423 25.726H20.5608C21.9446 25.726 23.2716 25.1763 24.2501 24.1978C25.2286 23.2194 25.7783 21.8923 25.7783 20.5085L25.7601 13.3855ZM24.0497 20.4268C24.0497 21.3774 23.6721 22.2891 22.9999 22.9613C22.3278 23.6334 21.4161 24.011 20.4655 24.011H13.5194C12.5688 24.011 11.6572 23.6334 10.985 22.9613C10.3128 22.2891 9.93522 21.3774 9.93522 20.4268V13.4671C9.93522 12.5166 10.3128 11.6049 10.985 10.9327C11.6572 10.2606 12.5688 9.88294 13.5194 9.88294H20.4837C21.4342 9.88294 22.3459 10.2606 23.0181 10.9327C23.6902 11.6049 24.0679 12.5166 24.0679 13.4671L24.0497 20.4268Z" fill="#EBF2FF" fill-opacity="0.5"/>
<path id="Vector_2" d="M17 0C13.6377 0 10.3509 0.997033 7.55531 2.86502C4.75967 4.733 2.58075 7.38804 1.29406 10.4944C0.00736743 13.6007 -0.329291 17.0189 0.326657 20.3165C0.982606 23.6142 2.6017 26.6433 4.97919 29.0208C7.35668 31.3983 10.3858 33.0174 13.6835 33.6733C16.9811 34.3293 20.3993 33.9926 23.5056 32.7059C26.612 31.4193 29.267 29.2403 31.135 26.4447C33.003 23.649 34 20.3623 34 17C33.9952 12.4928 32.2026 8.17157 29.0155 4.98449C25.8284 1.79741 21.5072 0.00480385 17 0ZM17 31.8222C14.0684 31.8222 11.2027 30.9529 8.7652 29.3242C6.32769 27.6956 4.42789 25.3806 3.30603 22.6722C2.18417 19.9638 1.89063 16.9836 2.46255 14.1083C3.03447 11.2331 4.44616 8.59201 6.51909 6.51908C8.59202 4.44615 11.2331 3.03447 14.1083 2.46255C16.9836 1.89063 19.9638 2.18416 22.6722 3.30602C25.3806 4.42788 27.6956 6.32768 29.3243 8.76519C30.953 11.2027 31.8223 14.0684 31.8223 17C31.8223 20.9324 30.2611 24.7038 27.4817 27.4857C24.7024 30.2676 20.9324 31.8322 17 31.8359V31.8222Z" fill="#EBF2FF" fill-opacity="0.5"/>
</g>
</svg>
