<svg width="34" height="34" viewBox="0 0 34 34" fill="none" xmlns="http://www.w3.org/2000/svg">
<g id="Group 19347">
<path id="Vector" d="M9.87594 12.9051H13.1244V23.3401H9.87594V12.9051ZM11.5002 7.71484C11.8726 7.71574 12.2363 7.82704 12.5455 8.03468C12.8546 8.24231 13.0952 8.53696 13.2369 8.88134C13.3786 9.22573 13.4149 9.60439 13.3414 9.96945C13.2679 10.3345 13.0877 10.6696 12.8238 10.9323C12.5598 11.1949 12.2239 11.3735 11.8585 11.4452C11.4931 11.517 11.1146 11.4788 10.7709 11.3355C10.4272 11.1921 10.1337 10.9501 9.92759 10.64C9.72145 10.3298 9.6119 9.96554 9.6128 9.59315C9.614 9.09458 9.8129 8.61683 10.1659 8.26471C10.5188 7.91259 10.9971 7.71484 11.4956 7.71484M15.157 23.3492H18.4054V18.1816C18.4054 16.8205 18.664 15.5003 20.3518 15.5003C22.0395 15.5003 22.0395 17.061 22.0395 18.2724V23.3492H25.2835V17.6236C25.2835 14.8061 24.68 12.6329 21.3908 12.6329C20.7724 12.6129 20.1601 12.761 19.6193 13.0614C19.0784 13.3618 18.6291 13.8033 18.3192 14.3388H18.2784V12.9097H15.1615L15.157 23.3492Z" fill="#EBF2FF" fill-opacity="0.5"/>
<path id="Vector_2" d="M17 0C13.6377 0 10.3509 0.997026 7.55531 2.86501C4.75968 4.73299 2.58074 7.38804 1.29406 10.4944C0.00736613 13.6007 -0.329291 17.0189 0.326658 20.3165C0.982606 23.6142 2.6017 26.6433 4.97919 29.0208C7.35668 31.3983 10.3858 33.0174 13.6835 33.6733C16.9811 34.3293 20.3993 33.9926 23.5056 32.7059C26.612 31.4193 29.267 29.2403 31.135 26.4447C33.003 23.6491 34 20.3623 34 17C33.9952 12.4928 32.2026 8.17156 29.0155 4.98448C25.8284 1.79741 21.5072 0.00480385 17 0ZM17 31.8223C14.0682 31.8232 11.2021 30.9546 8.76396 29.3265C6.32586 27.6983 4.42535 25.3837 3.30279 22.6754C2.18023 19.967 1.88606 16.9866 2.45746 14.1111C3.02887 11.2356 4.4402 8.59406 6.51294 6.52068C8.58569 4.44729 11.2268 3.03516 14.1021 2.46287C16.9775 1.89059 19.958 2.18385 22.6666 3.30558C25.3753 4.42731 27.6905 6.32712 29.3194 8.76472C30.9483 11.2023 31.8177 14.0682 31.8177 17C31.8105 20.9273 30.2469 24.6916 27.4695 27.4681C24.692 30.2447 20.9273 31.8072 17 31.8132V31.8223Z" fill="#EBF2FF" fill-opacity="0.5"/>
</g>
</svg>
