<svg width="34" height="34" viewBox="0 0 34 34" fill="none" xmlns="http://www.w3.org/2000/svg">
<g id="Frame 19903">
<path id="Vector" d="M17 0C13.6377 0 10.351 0.997033 7.55532 2.86502C4.75968 4.733 2.58075 7.38804 1.29406 10.4944C0.00736743 13.6007 -0.329291 17.0189 0.326657 20.3165C0.982606 23.6142 2.6017 26.6433 4.9792 29.0208C7.35669 31.3983 10.3858 33.0174 13.6835 33.6733C16.9812 34.3293 20.3993 33.9926 23.5056 32.7059C26.612 31.4193 29.267 29.2403 31.135 26.4447C33.003 23.6491 34 20.3623 34 17C33.9952 12.4928 32.2026 8.17157 29.0155 4.98449C25.8284 1.79741 21.5072 0.00480385 17 0ZM17 31.8177C14.0682 31.8177 11.2023 30.9483 8.76473 29.3194C6.32713 27.6905 4.42732 25.3753 3.3056 22.6666C2.18387 19.958 1.8906 16.9775 2.46289 14.1021C3.03518 11.2268 4.44731 8.58569 6.52069 6.51294C8.59408 4.44019 11.2356 3.02887 14.1111 2.45746C16.9866 1.88605 19.967 2.18023 22.6754 3.30279C25.3837 4.42534 27.6983 6.32585 29.3265 8.76396C30.9546 11.2021 31.8232 14.0682 31.8223 17C31.8175 20.9292 30.2541 24.6961 27.4753 27.474C24.6965 30.252 20.9292 31.8141 17 31.8177Z" fill="#EBF2FF" fill-opacity="0.5"/>
<g id="layer1">
<path id="path1009" d="M8.04389 9L14.9935 18.2923L8 25.8473H9.57395L15.6967 19.2328L20.6438 25.8473H26L18.6594 16.0323L25.1689 9H23.5949L17.9561 15.0918L13.4001 9H8.04389ZM10.3585 10.1594H12.8192L23.685 24.6877H21.2244L10.3585 10.1594Z" fill="#84888E"/>
</g>
</g>
</svg>
