<svg width="87" height="87" viewBox="0 0 87 87" fill="none" xmlns="http://www.w3.org/2000/svg">
<g id="Group 18870">
<circle id="Ellipse 1" cx="43.5" cy="43.5" r="43.5" fill="black"/>
<path id="Union" fill-rule="evenodd" clip-rule="evenodd" d="M29.6304 31.6358C29.6304 30.3438 30.6778 29.2965 31.9697 29.2964L55.3628 29.2964C56.6548 29.2964 57.7021 30.3438 57.7021 31.6358C57.7021 31.7488 57.6941 31.8599 57.6786 31.9686C57.6944 32.0784 57.7026 32.1906 57.7026 32.3047V55.0294C57.7026 56.3214 56.6553 57.3687 55.3633 57.3687C54.0713 57.3687 53.024 56.3214 53.024 55.0294L53.024 37.2848L33.2899 57.0189C32.3763 57.9325 30.8952 57.9325 29.9816 57.0189C29.0681 56.1054 29.0681 54.6242 29.9816 53.7106L49.7172 33.9751L31.9697 33.9751C30.6778 33.9751 29.6304 32.9277 29.6304 31.6358Z" fill="url(#paint0_linear_1_10)"/>
</g>
<defs>
<linearGradient id="paint0_linear_1_10" x1="43.5149" y1="29.2964" x2="47.0504" y2="57.324" gradientUnits="userSpaceOnUse">
<stop stop-color="#00FAFF"/>
<stop offset="0.541667" stop-color="#0063FF"/>
<stop offset="1" stop-color="#070D1E"/>
</linearGradient>
</defs>
</svg>
