<svg width="44" height="44" viewBox="0 0 44 44" fill="none" xmlns="http://www.w3.org/2000/svg">
<g id="Group 18870">
<circle id="Ellipse 1" cx="22" cy="22" r="22" fill="black"/>
<path id="Union" fill-rule="evenodd" clip-rule="evenodd" d="M31.2019 21.2745C31.6643 21.7362 31.6649 22.4853 31.2032 22.9477L22.8442 31.3201C22.3825 31.7825 21.6334 31.7831 21.171 31.3215C21.1305 31.281 21.0935 31.2383 21.0601 31.1938C21.0154 31.1604 20.9725 31.1234 20.9319 31.0828L12.7986 22.9626C12.3362 22.5009 12.3356 21.7518 12.7973 21.2894C13.2589 20.827 14.008 20.8264 14.4704 21.2881L20.8216 27.629L20.8102 13.5147C20.8097 12.8613 21.3389 12.3312 21.9924 12.3307C22.6458 12.3302 23.1759 12.8594 23.1764 13.5128L23.1877 27.627L29.5287 21.2758C29.9904 20.8134 30.7395 20.8128 31.2019 21.2745Z" fill="white"/>
</g>
</svg>
