<svg width="42" height="45" viewBox="0 0 42 45" fill="none" xmlns="http://www.w3.org/2000/svg">
<path id="Union" fill-rule="evenodd" clip-rule="evenodd" d="M8.81532 36.6549C8.40285 33.2349 8.29237 29.0463 8.48633 24.0844C8.68029 19.1237 9.44508 13.4756 10.7831 7.13751C10.9035 6.56913 11.16 6.20699 11.5578 6.04864C11.953 5.8915 12.3925 5.84364 12.87 5.90256C13.3488 5.96271 13.803 6.09529 14.2327 6.3003C14.6623 6.50653 14.9533 6.6919 15.103 6.8564C15.1399 6.84781 15.1632 6.86376 15.1706 6.90059L15.1816 6.95705L15.1927 7.01231C15.4922 9.87136 16.0078 12.9293 16.7382 16.1873C17.4686 19.4466 18.3439 22.7046 19.3665 25.9626C20.389 29.2206 21.5086 32.3829 22.7251 35.4445C23.8337 38.2373 24.9827 40.7649 26.1698 43.0568L26.3318 42.9635C25.9648 41.3959 25.6701 39.5189 25.4578 37.2908C25.2098 34.6944 25.1423 31.6819 25.2527 28.2557C25.3632 24.8295 25.6799 21.0203 26.2041 16.8306C26.7234 12.6641 27.5029 8.15641 28.5402 3.30989L24.7126 1.10023C22.1703 -0.366742 19.0129 -0.366742 16.4706 1.10023L4.11979 8.23252C1.57868 9.69949 0 12.4333 0 15.3685V29.6319C0 32.567 1.57868 35.3009 4.11979 36.7666L9.27444 39.7435C9.10381 38.8007 8.94913 37.7769 8.81287 36.6561L8.81532 36.6549ZM37.0659 8.23137L32.4662 5.57486C32.012 7.47271 31.5762 9.46142 31.16 11.5483C30.6542 14.0821 30.2025 16.6711 29.7986 19.3202C29.3947 21.9693 29.0498 24.616 28.7638 27.2627C28.4765 29.9069 28.2899 32.4738 28.204 34.9609C28.1217 37.3793 28.1475 39.6712 28.2727 41.8452L37.0672 36.7667C39.6083 35.301 41.1882 32.5659 41.1882 29.632V15.3686C41.1882 12.4322 39.6095 9.69834 37.0672 8.2326L37.0659 8.23137ZM17.3045 31.1037C18.9925 34.9669 20.6411 38.1979 22.2505 40.793L22.2493 40.7943C23.0153 42.028 23.742 43.1046 24.4332 44.0376C23.2326 44.671 21.9166 45 20.5933 45C19.1693 45 17.744 44.6329 16.4722 43.8988L11.5116 41.0349C11.5052 40.9659 11.4981 40.8981 11.4911 40.8303C11.4818 40.7413 11.4726 40.6523 11.4649 40.561C11.2771 38.2642 11.2243 35.8618 11.3065 33.3551C11.3888 30.8496 11.5668 28.2937 11.843 25.6888C12.1192 23.0875 12.4813 20.4752 12.9294 17.8555C14.1582 22.8236 15.6166 27.2392 17.3045 31.1037Z" fill="url(#paint0_linear_1_28)"/>
<defs>
<linearGradient id="paint0_linear_1_28" x1="13.0068" y1="3.88913e-07" x2="67.9274" y2="83.9126" gradientUnits="userSpaceOnUse">
<stop stop-color="#00FAFF"/>
<stop offset="0.541667" stop-color="#0063FF"/>
<stop offset="1" stop-color="#070D1E"/>
</linearGradient>
</defs>
</svg>
